# xmcd CD database file
#
# Track frame offsets:
#	183
#	20655
#	48450
#	65418
#	90108
#	105980
#	128305
#	144775
#	179048
#	218843
#	234083
#	252103
#	279900
#
# Disc length: 3933 seconds
#
# Revision: 0
# Processed by: cddbd v1.5.1PL0 Copyright (c) Steve Scherf et al.
# Submitted via: CDex 1.51
#
DISCID=9e0f5b0d
DTITLE=Dizzy Gillespie - The legendary Big Band 1948 concerts
DYEAR=1948
DGENRE=Jazz
TTITLE0=Emanon
TTITLE1=Ool-ya-koo
TTITLE2='Round midnight
TTITLE3=Stay on it
TTITLE4=Good bait
TTITLE5=One bass hit
TTITLE6=I can't get started
TTITLE7=Manteca
TTITLE8='Round midnight
TTITLE9=Algo bueno
TTITLE10=I can't get started
TTITLE11=Afro cuban suite
TTITLE12=Things to come
EXTD=YEAR: 1948
EXTT0=
EXTT1=
EXTT2=
EXTT3=
EXTT4=
EXTT5=
EXTT6=
EXTT7=
EXTT8=
EXTT9=
EXTT10=
EXTT11=
EXTT12=
PLAYORDER=
